<svg width="427" height="117" viewBox="0 0 427 117" fill="none" xmlns="http://www.w3.org/2000/svg">
<path d="M369.25 76V0.47998H373.09V76H369.25ZM376.93 76V0.47998H388.45V76H376.93ZM392.29 76V0.47998H396.13V76H392.29ZM399.97 76V0.47998H403.81V76H399.97ZM415.33 76V0.47998H426.85V76H415.33ZM391.266 87.136H395.106V87.52C394.935 87.6907 394.807 87.904 394.722 88.16C394.722 88.3307 394.722 88.7146 394.722 89.312V114.016H408.93V116.832H391.266V87.136Z" fill="white"/>
<path d="M307.75 76V0.47998H319.27V76H307.75ZM323.11 76V0.47998H326.95V76H323.11ZM330.79 76V0.47998H334.63V76H330.79ZM346.15 76V0.47998H349.99V76H346.15ZM353.83 76V0.47998H365.35V76H353.83ZM343.206 108.128H333.606L330.662 116.832H327.334L338.214 86.624H338.598L349.606 116.832H346.15L343.206 108.128ZM342.31 105.568L338.47 94.304L334.502 105.568H342.31Z" fill="white"/>
<path d="M246.25 76V0.47998H250.09V76H246.25ZM253.93 76V0.47998H257.77V76H253.93ZM261.61 76V0.47998H273.13V76H261.61ZM276.97 76V0.47998H280.81V76H276.97ZM292.33 76V0.47998H303.85V76H292.33ZM267.498 87.136H270.698L283.114 109.152V87.136H286.826V87.52C286.57 87.6907 286.442 87.904 286.442 88.16C286.357 88.3307 286.314 88.7146 286.314 89.312V116.832H283.754L270.57 93.536V116.832H267.498V87.136Z" fill="white"/>
<path d="M184.75 76V0.47998H188.59V76H184.75ZM192.43 76V0.47998H203.95V76H192.43ZM207.79 76V0.47998H211.63V76H207.79ZM223.15 76V0.47998H234.67V76H223.15ZM238.51 76V0.47998H242.35V76H238.51ZM207.406 114.016H213.294V89.952H207.79V87.136H222.51V89.952H216.622V114.016H222.766V116.832H207.406V114.016Z" fill="white"/>
<path d="M123.25 76V0.47998H134.77V76H123.25ZM138.61 76V0.47998H150.13V76H138.61ZM153.97 76V0.47998H157.81V76H153.97ZM161.65 76V0.47998H165.49V76H161.65ZM177.01 76V0.47998H180.85V76H177.01ZM143.986 87.136H146.674L153.97 101.728L161.394 87.136H163.954V116.832H160.754V94.432L154.354 106.464H153.074L147.058 94.56V116.832H143.986V87.136Z" fill="white"/>
<path d="M61.75 76V0.47998H65.59V76H61.75ZM69.43 76V0.47998H80.95V76H69.43ZM84.79 76V0.47998H88.63V76H84.79ZM100.15 76V0.47998H111.67V76H100.15ZM115.51 76V0.47998H119.35V76H115.51ZM84.406 114.016H90.294V89.952H84.79V87.136H99.51V89.952H93.622V114.016H99.766V116.832H84.406V114.016Z" fill="white"/>
<path d="M0.25 76V0.47998H4.09V76H0.25ZM7.93 76V0.47998H19.45V76H7.93ZM23.29 76V0.47998H27.13V76H23.29ZM30.97 76V0.47998H34.81V76H30.97ZM46.33 76V0.47998H57.85V76H46.33ZM22.266 87.136H26.106V87.52C25.9353 87.6907 25.8073 87.904 25.722 88.16C25.722 88.3307 25.722 88.7146 25.722 89.312V114.016H39.93V116.832H22.266V87.136Z" fill="white"/>
</svg>
